<svg width="138" height="42" viewBox="0 0 138 42" fill="none" xmlns="http://www.w3.org/2000/svg">
<rect width="138" height="42" rx="4" fill="#FEC80B"/>
<path d="M19 15.2143C19 14.6817 19.4029 14.25 19.9 14.25H36.1C36.5971 14.25 37 14.6817 37 15.2143C37 15.7468 36.5971 16.1786 36.1 16.1786H19.9C19.4029 16.1786 19 15.7468 19 15.2143Z" fill="black"/>
<path d="M19 21C19 20.4674 19.4029 20.0357 19.9 20.0357H36.1C36.5971 20.0357 37 20.4674 37 21C37 21.5326 36.5971 21.9643 36.1 21.9643H19.9C19.4029 21.9643 19 21.5326 19 21Z" fill="black"/>
<path d="M19.9 25.8214C19.4029 25.8214 19 26.2532 19 26.7857C19 27.3183 19.4029 27.75 19.9 27.75H36.1C36.5971 27.75 37 27.3183 37 26.7857C37 26.2532 36.5971 25.8214 36.1 25.8214H19.9Z" fill="black"/>
<path d="M66.08 14.598L62.642 20.412L66.422 27H64.442L61.202 21.186H59.51V27H57.8V14.598H59.51V19.782H61.22L64.28 14.598H66.08ZM74.5766 24.786C74.5766 25.17 74.6426 25.458 74.7746 25.65C74.9066 25.83 75.1046 25.968 75.3686 26.064L74.9906 27.216C74.4986 27.156 74.1026 27.018 73.8026 26.802C73.5026 26.586 73.2806 26.25 73.1366 25.794C72.5006 26.742 71.5586 27.216 70.3106 27.216C69.3746 27.216 68.6366 26.952 68.0966 26.424C67.5566 25.896 67.2866 25.206 67.2866 24.354C67.2866 23.346 67.6466 22.572 68.3666 22.032C69.0986 21.492 70.1306 21.222 71.4626 21.222H72.9206V20.52C72.9206 19.848 72.7586 19.368 72.4346 19.08C72.1106 18.792 71.6126 18.648 70.9406 18.648C70.2446 18.648 69.3926 18.816 68.3846 19.152L67.9706 17.946C69.1466 17.514 70.2386 17.298 71.2466 17.298C72.3626 17.298 73.1966 17.574 73.7486 18.126C74.3006 18.666 74.5766 19.44 74.5766 20.448V24.786ZM70.6886 25.974C71.6366 25.974 72.3806 25.482 72.9206 24.498V22.32H71.6786C69.9266 22.32 69.0506 22.968 69.0506 24.264C69.0506 24.828 69.1886 25.254 69.4646 25.542C69.7406 25.83 70.1486 25.974 70.6886 25.974ZM84.034 17.514L83.836 18.864H80.794V27H79.138V18.864H76.006V17.514H84.034ZM91.4164 24.786C91.4164 25.17 91.4824 25.458 91.6144 25.65C91.7464 25.83 91.9444 25.968 92.2084 26.064L91.8304 27.216C91.3384 27.156 90.9424 27.018 90.6424 26.802C90.3424 26.586 90.1204 26.25 89.9764 25.794C89.3404 26.742 88.3984 27.216 87.1504 27.216C86.2144 27.216 85.4764 26.952 84.9364 26.424C84.3964 25.896 84.1264 25.206 84.1264 24.354C84.1264 23.346 84.4864 22.572 85.2064 22.032C85.9384 21.492 86.9704 21.222 88.3024 21.222H89.7604V20.52C89.7604 19.848 89.5984 19.368 89.2744 19.08C88.9504 18.792 88.4524 18.648 87.7804 18.648C87.0844 18.648 86.2324 18.816 85.2244 19.152L84.8104 17.946C85.9864 17.514 87.0784 17.298 88.0864 17.298C89.2024 17.298 90.0364 17.574 90.5884 18.126C91.1404 18.666 91.4164 19.44 91.4164 20.448V24.786ZM87.5284 25.974C88.4764 25.974 89.2204 25.482 89.7604 24.498V22.32H88.5184C86.7664 22.32 85.8904 22.968 85.8904 24.264C85.8904 24.828 86.0284 25.254 86.3044 25.542C86.5804 25.83 86.9884 25.974 87.5284 25.974ZM101.765 17.514V27H100.109V18.864H97.1754L96.9054 22.032C96.7974 23.316 96.6594 24.276 96.4914 24.912C96.3354 25.548 96.0834 26.04 95.7354 26.388C95.3994 26.724 94.8834 27 94.1874 27.216L93.7734 25.902C94.1814 25.758 94.4694 25.572 94.6374 25.344C94.8054 25.116 94.9314 24.768 95.0154 24.3C95.0994 23.832 95.1894 23.016 95.2854 21.852L95.6634 17.514H101.765ZM108.753 17.298C110.085 17.298 111.117 17.742 111.849 18.63C112.593 19.518 112.965 20.724 112.965 22.248C112.965 23.232 112.797 24.102 112.461 24.858C112.125 25.602 111.639 26.184 111.003 26.604C110.367 27.012 109.611 27.216 108.735 27.216C107.403 27.216 106.365 26.772 105.621 25.884C104.877 24.996 104.505 23.79 104.505 22.266C104.505 21.282 104.673 20.418 105.009 19.674C105.345 18.918 105.831 18.336 106.467 17.928C107.103 17.508 107.865 17.298 108.753 17.298ZM108.753 18.63C107.109 18.63 106.287 19.842 106.287 22.266C106.287 24.678 107.103 25.884 108.735 25.884C110.367 25.884 111.183 24.672 111.183 22.248C111.183 19.836 110.373 18.63 108.753 18.63ZM117.356 27H115.7V17.514H121.622L121.406 18.882H117.356V27Z" fill="black"/>
</svg>
