<svg width="106" height="24" viewBox="0 0 106 24" fill="none" xmlns="http://www.w3.org/2000/svg">
<path d="M3 6.21429C3 5.68173 3.40294 5.25 3.9 5.25H20.1C20.5971 5.25 21 5.68173 21 6.21429C21 6.74685 20.5971 7.17857 20.1 7.17857H3.9C3.40294 7.17857 3 6.74685 3 6.21429Z" fill="black"/>
<path d="M3 12C3 11.4674 3.40294 11.0357 3.9 11.0357H20.1C20.5971 11.0357 21 11.4674 21 12C21 12.5326 20.5971 12.9643 20.1 12.9643H3.9C3.40294 12.9643 3 12.5326 3 12Z" fill="black"/>
<path d="M3.9 16.8214C3.40294 16.8214 3 17.2532 3 17.7857C3 18.3183 3.40294 18.75 3.9 18.75H20.1C20.5971 18.75 21 18.3183 21 17.7857C21 17.2532 20.5971 16.8214 20.1 16.8214H3.9Z" fill="black"/>
<path d="M50.08 5.598L46.642 11.412L50.422 18H48.442L45.202 12.186H43.51V18H41.8V5.598H43.51V10.782H45.22L48.28 5.598H50.08ZM58.5766 15.786C58.5766 16.17 58.6426 16.458 58.7746 16.65C58.9066 16.83 59.1046 16.968 59.3686 17.064L58.9906 18.216C58.4986 18.156 58.1026 18.018 57.8026 17.802C57.5026 17.586 57.2806 17.25 57.1366 16.794C56.5006 17.742 55.5586 18.216 54.3106 18.216C53.3746 18.216 52.6366 17.952 52.0966 17.424C51.5566 16.896 51.2866 16.206 51.2866 15.354C51.2866 14.346 51.6466 13.572 52.3666 13.032C53.0986 12.492 54.1306 12.222 55.4626 12.222H56.9206V11.52C56.9206 10.848 56.7586 10.368 56.4346 10.08C56.1106 9.792 55.6126 9.648 54.9406 9.648C54.2446 9.648 53.3926 9.816 52.3846 10.152L51.9706 8.946C53.1466 8.514 54.2386 8.298 55.2466 8.298C56.3626 8.298 57.1966 8.574 57.7486 9.126C58.3006 9.666 58.5766 10.44 58.5766 11.448V15.786ZM54.6886 16.974C55.6366 16.974 56.3806 16.482 56.9206 15.498V13.32H55.6786C53.9266 13.32 53.0506 13.968 53.0506 15.264C53.0506 15.828 53.1886 16.254 53.4646 16.542C53.7406 16.83 54.1486 16.974 54.6886 16.974ZM68.034 8.514L67.836 9.864H64.794V18H63.138V9.864H60.006V8.514H68.034ZM75.4164 15.786C75.4164 16.17 75.4824 16.458 75.6144 16.65C75.7464 16.83 75.9444 16.968 76.2084 17.064L75.8304 18.216C75.3384 18.156 74.9424 18.018 74.6424 17.802C74.3424 17.586 74.1204 17.25 73.9764 16.794C73.3404 17.742 72.3984 18.216 71.1504 18.216C70.2144 18.216 69.4764 17.952 68.9364 17.424C68.3964 16.896 68.1264 16.206 68.1264 15.354C68.1264 14.346 68.4864 13.572 69.2064 13.032C69.9384 12.492 70.9704 12.222 72.3024 12.222H73.7604V11.52C73.7604 10.848 73.5984 10.368 73.2744 10.08C72.9504 9.792 72.4524 9.648 71.7804 9.648C71.0844 9.648 70.2324 9.816 69.2244 10.152L68.8104 8.946C69.9864 8.514 71.0784 8.298 72.0864 8.298C73.2024 8.298 74.0364 8.574 74.5884 9.126C75.1404 9.666 75.4164 10.44 75.4164 11.448V15.786ZM71.5284 16.974C72.4764 16.974 73.2204 16.482 73.7604 15.498V13.32H72.5184C70.7664 13.32 69.8904 13.968 69.8904 15.264C69.8904 15.828 70.0284 16.254 70.3044 16.542C70.5804 16.83 70.9884 16.974 71.5284 16.974ZM85.7654 8.514V18H84.1094V9.864H81.1754L80.9054 13.032C80.7974 14.316 80.6594 15.276 80.4914 15.912C80.3354 16.548 80.0834 17.04 79.7354 17.388C79.3994 17.724 78.8834 18 78.1874 18.216L77.7734 16.902C78.1814 16.758 78.4694 16.572 78.6374 16.344C78.8054 16.116 78.9314 15.768 79.0154 15.3C79.0994 14.832 79.1894 14.016 79.2854 12.852L79.6634 8.514H85.7654ZM92.7525 8.298C94.0845 8.298 95.1165 8.742 95.8485 9.63C96.5925 10.518 96.9645 11.724 96.9645 13.248C96.9645 14.232 96.7965 15.102 96.4605 15.858C96.1245 16.602 95.6385 17.184 95.0025 17.604C94.3665 18.012 93.6105 18.216 92.7345 18.216C91.4025 18.216 90.3645 17.772 89.6205 16.884C88.8765 15.996 88.5045 14.79 88.5045 13.266C88.5045 12.282 88.6725 11.418 89.0085 10.674C89.3445 9.918 89.8305 9.336 90.4665 8.928C91.1025 8.508 91.8645 8.298 92.7525 8.298ZM92.7525 9.63C91.1085 9.63 90.2865 10.842 90.2865 13.266C90.2865 15.678 91.1025 16.884 92.7345 16.884C94.3665 16.884 95.1825 15.672 95.1825 13.248C95.1825 10.836 94.3725 9.63 92.7525 9.63ZM101.356 18H99.7002V8.514H105.622L105.406 9.882H101.356V18Z" fill="black"/>
</svg>
