<svg width="346" height="44" viewBox="0 0 346 44" fill="none"
    xmlns="http://www.w3.org/2000/svg">
    <path d="M55.2545 25.3444V31.3969H50.9541V13.5581H58.0725C59.4365 13.5581 60.6413 13.8113 61.6868 14.3177C62.7405 14.8159 63.5532 15.5306 64.1249 16.4618C64.7048 17.3848 64.9948 18.4343 64.9948 19.6105C64.9948 21.3503 64.37 22.7429 63.1203 23.7884C61.8787 24.8258 60.1716 25.3444 57.999 25.3444H55.2545ZM55.2545 22.0242H58.0725C58.9056 22.0242 59.5386 21.8159 59.9715 21.3993C60.4126 20.9827 60.6331 20.3946 60.6331 19.635C60.6331 18.8019 60.4085 18.1362 59.9593 17.638C59.51 17.1397 58.8974 16.8865 58.1215 16.8783H55.2545V22.0242Z" fill="black"/>
    <path d="M73.8441 21.3013V21.3135L76.7968 13.5581H81.3301L75.3266 27.709C74.6813 29.1384 73.9544 30.1472 73.1458 30.7353C72.3453 31.3152 71.406 31.6215 70.3278 31.6542H69.4579L68.7963 31.6297L68.7228 28.2971C68.8208 28.3298 69.1067 28.3461 69.5805 28.3461C70.2339 28.3461 70.724 28.2359 71.0507 28.0153C71.3856 27.7866 71.6551 27.3497 71.8593 26.7044L72.0676 26.1163L65.6231 13.5581H70.1931L73.8441 21.3013Z" fill="black"/>
    <path d="M96.5626 25.3567C96.5055 26.5982 96.1706 27.6968 95.558 28.6524C94.9454 29.5999 94.0837 30.335 92.9728 30.8578C91.8701 31.3805 90.6082 31.6419 89.187 31.6419C86.8428 31.6419 84.9968 30.8782 83.6491 29.3508C82.3014 27.8234 81.6275 25.6671 81.6275 22.8818V21.9996C81.6275 20.2517 81.9298 18.7243 82.5342 17.4174C83.1468 16.1024 84.0248 15.0896 85.1683 14.379C86.3119 13.6602 87.6351 13.3008 89.138 13.3008C91.3025 13.3008 93.0422 13.8725 94.3573 15.0161C95.6723 16.1514 96.4197 17.7196 96.5994 19.7208H92.3112C92.2785 18.6345 92.0049 17.8544 91.4903 17.3807C90.9758 16.9069 90.1916 16.6701 89.138 16.6701C88.068 16.6701 87.2838 17.0703 86.7856 17.8707C86.2874 18.6712 86.026 19.9495 86.0015 21.7056V22.9676C86.0015 24.8707 86.2383 26.2306 86.7121 27.0474C87.194 27.8642 88.019 28.2726 89.187 28.2726C90.1753 28.2726 90.9308 28.0398 91.4536 27.5743C91.9763 27.1087 92.254 26.3695 92.2867 25.3567H96.5626Z" fill="black"/>
    <path d="M111.856 16.8783H106.502V31.3969H102.202V16.8783H96.9459V13.5581H111.856V16.8783Z" fill="black"/>
    <path d="M117.606 25.3444V31.3969H113.306V13.5581H120.424C121.788 13.5581 122.993 13.8113 124.038 14.3177C125.092 14.8159 125.905 15.5306 126.476 16.4618C127.056 17.3848 127.346 18.4343 127.346 19.6105C127.346 21.3503 126.721 22.7429 125.472 23.7884C124.23 24.8258 122.523 25.3444 120.35 25.3444H117.606ZM117.606 22.0242H120.424C121.257 22.0242 121.89 21.8159 122.323 21.3993C122.764 20.9827 122.985 20.3946 122.985 19.635C122.985 18.8019 122.76 18.1362 122.311 17.638C121.862 17.1397 121.249 16.8865 120.473 16.8783H117.606V22.0242Z" fill="black"/>
    <path d="M137.225 28.0644H131.332L130.302 31.3969H125.708L132.251 13.5581H136.294L142.885 31.3969H138.266L137.225 28.0644ZM132.361 24.7441H136.196L134.272 18.5569L132.361 24.7441Z" fill="black"/>
    <path d="M150.13 24.3398H148.096V31.3969H143.795V13.5581H148.096V20.4559H149.75L153.18 13.5581H158.387L153.487 21.7914L159 31.3969H153.915L150.13 24.3398Z" fill="black"/>
    <path fill-rule="evenodd" clip-rule="evenodd" d="M43.2642 23.7764C44.2453 22.7953 44.2453 21.2047 43.2642 20.2236L23.7764 0.735796C22.7953 -0.245266 21.2047 -0.245265 20.2236 0.735797L0.735796 20.2236C-0.245266 21.2047 -0.245265 22.7953 0.735796 23.7764L20.2236 43.2642C21.2047 44.2453 22.7953 44.2453 23.7764 43.2642L43.2642 23.7764ZM34.8912 23.7764C35.8722 22.7953 35.8722 21.2047 34.8912 20.2236L23.7764 9.10881C22.7953 8.12775 21.2047 8.12775 20.2236 9.10881L9.10881 20.2236C8.12775 21.2047 8.12775 22.7953 9.10881 23.7764L20.2236 34.8912C21.2047 35.8722 22.7953 35.8722 23.7764 34.8912L34.8912 23.7764Z" fill="#FEC80B"/>
    <path d="M184.642 19V12.672H181.618V19H180.33V11.622H185.93V19H184.642ZM191.976 11.454C192.918 11.454 193.609 11.79 194.048 12.462C194.486 13.134 194.706 14.0813 194.706 15.304C194.706 16.4613 194.454 17.3947 193.95 18.104C193.446 18.8133 192.732 19.168 191.808 19.168C190.986 19.168 190.342 18.888 189.876 18.328V21.828L188.588 21.982V11.622H189.694L189.792 12.616C190.062 12.2427 190.389 11.958 190.772 11.762C191.154 11.5567 191.556 11.454 191.976 11.454ZM191.5 18.118C192.713 18.118 193.32 17.18 193.32 15.304C193.32 13.4187 192.764 12.476 191.654 12.476C191.29 12.476 190.958 12.5833 190.66 12.798C190.361 13.0127 190.1 13.288 189.876 13.624V17.222C190.062 17.5113 190.296 17.7353 190.576 17.894C190.856 18.0433 191.164 18.118 191.5 18.118ZM199.672 11.454C200.708 11.454 201.511 11.7993 202.08 12.49C202.659 13.1807 202.948 14.1187 202.948 15.304C202.948 16.0693 202.818 16.746 202.556 17.334C202.295 17.9127 201.917 18.3653 201.422 18.692C200.928 19.0093 200.34 19.168 199.658 19.168C198.622 19.168 197.815 18.8227 197.236 18.132C196.658 17.4413 196.368 16.5033 196.368 15.318C196.368 14.5527 196.499 13.8807 196.76 13.302C197.022 12.714 197.4 12.2613 197.894 11.944C198.389 11.6173 198.982 11.454 199.672 11.454ZM199.672 12.49C198.394 12.49 197.754 13.4327 197.754 15.318C197.754 17.194 198.389 18.132 199.658 18.132C200.928 18.132 201.562 17.1893 201.562 15.304C201.562 13.428 200.932 12.49 199.672 12.49ZM210.816 19H209.542V15.668C209.542 15.108 209.561 14.576 209.598 14.072C209.635 13.568 209.668 13.2367 209.696 13.078L206.602 19H205.076V11.622H206.35V14.954C206.35 15.4487 206.331 15.962 206.294 16.494C206.257 17.0167 206.229 17.3527 206.21 17.502L209.262 11.622H210.816V19ZM215.291 11.454C215.757 11.454 216.191 11.5333 216.593 11.692C217.003 11.8413 217.33 12.0653 217.573 12.364C217.825 12.6627 217.951 13.022 217.951 13.442C217.951 13.8527 217.829 14.1887 217.587 14.45C217.353 14.7113 216.98 14.912 216.467 15.052C217.083 15.1547 217.549 15.346 217.867 15.626C218.184 15.906 218.343 16.3073 218.343 16.83C218.343 17.5953 218.044 18.1787 217.447 18.58C216.859 18.972 216.107 19.168 215.193 19.168C214.082 19.168 213.135 18.86 212.351 18.244L213.023 17.446C213.349 17.6793 213.676 17.852 214.003 17.964C214.339 18.076 214.721 18.132 215.151 18.132C216.355 18.132 216.957 17.6933 216.957 16.816C216.957 16.3867 216.784 16.088 216.439 15.92C216.103 15.7427 215.631 15.654 215.025 15.654H214.045L214.129 14.646H214.885C215.407 14.646 215.827 14.5527 216.145 14.366C216.462 14.1793 216.621 13.89 216.621 13.498C216.621 13.134 216.485 12.8727 216.215 12.714C215.944 12.546 215.589 12.462 215.151 12.462C214.768 12.462 214.427 12.5133 214.129 12.616C213.839 12.7093 213.545 12.8587 213.247 13.064L212.631 12.294C213.004 12.014 213.405 11.804 213.835 11.664C214.264 11.524 214.749 11.454 215.291 11.454ZM224.363 14.996C225.613 15.1173 226.239 15.696 226.239 16.732C226.239 17.5067 225.954 18.0807 225.385 18.454C224.825 18.818 224.073 19 223.131 19H220.471V11.72C221.339 11.5427 222.146 11.454 222.893 11.454C223.807 11.454 224.531 11.6267 225.063 11.972C225.595 12.3173 225.861 12.812 225.861 13.456C225.861 13.876 225.735 14.2167 225.483 14.478C225.231 14.7393 224.857 14.912 224.363 14.996ZM222.907 12.448C222.515 12.448 222.132 12.476 221.759 12.532V14.618H223.145C223.593 14.618 223.938 14.534 224.181 14.366C224.423 14.198 224.545 13.9133 224.545 13.512C224.545 13.1387 224.409 12.868 224.139 12.7C223.868 12.532 223.457 12.448 222.907 12.448ZM223.131 17.992C223.681 17.992 224.111 17.8987 224.419 17.712C224.727 17.5253 224.881 17.1893 224.881 16.704C224.881 16.3027 224.75 16.0133 224.489 15.836C224.227 15.6587 223.784 15.57 223.159 15.57H221.759V17.992H223.131ZM231.09 11.454C232.126 11.454 232.929 11.7993 233.498 12.49C234.077 13.1807 234.366 14.1187 234.366 15.304C234.366 16.0693 234.236 16.746 233.974 17.334C233.713 17.9127 233.335 18.3653 232.84 18.692C232.346 19.0093 231.758 19.168 231.076 19.168C230.04 19.168 229.233 18.8227 228.654 18.132C228.076 17.4413 227.786 16.5033 227.786 15.318C227.786 14.5527 227.917 13.8807 228.178 13.302C228.44 12.714 228.818 12.2613 229.312 11.944C229.807 11.6173 230.4 11.454 231.09 11.454ZM231.09 12.49C229.812 12.49 229.172 13.4327 229.172 15.318C229.172 17.194 229.807 18.132 231.076 18.132C232.346 18.132 232.98 17.1893 232.98 15.304C232.98 13.428 232.35 12.49 231.09 12.49ZM242.279 17.964V21.1H241.229L241.019 19H236.287L236.077 21.1H235.027V17.964H235.545C235.769 17.8147 235.947 17.6467 236.077 17.46C236.208 17.264 236.325 16.928 236.427 16.452C236.539 15.976 236.628 15.2807 236.693 14.366L236.889 11.622H241.509V17.964H242.279ZM240.221 12.644H238.051L237.939 14.198C237.874 15.066 237.799 15.7333 237.715 16.2C237.631 16.6667 237.51 17.026 237.351 17.278C237.202 17.53 236.983 17.7587 236.693 17.964H240.221V12.644ZM246.825 11.454C247.263 11.454 247.665 11.5193 248.029 11.65C248.393 11.7713 248.743 11.972 249.079 12.252L248.463 13.064C248.201 12.8773 247.945 12.742 247.693 12.658C247.45 12.5647 247.179 12.518 246.881 12.518C246.283 12.518 245.817 12.756 245.481 13.232C245.154 13.708 244.991 14.4127 244.991 15.346C244.991 16.2793 245.154 16.97 245.481 17.418C245.807 17.8567 246.274 18.076 246.881 18.076C247.17 18.076 247.436 18.034 247.679 17.95C247.921 17.8567 248.192 17.712 248.491 17.516L249.079 18.356C248.407 18.8973 247.655 19.168 246.825 19.168C245.826 19.168 245.037 18.832 244.459 18.16C243.889 17.488 243.605 16.5593 243.605 15.374C243.605 14.59 243.735 13.904 243.997 13.316C244.258 12.728 244.627 12.2707 245.103 11.944C245.588 11.6173 246.162 11.454 246.825 11.454ZM255.806 11.622L255.652 12.672H253.286V19H251.998V12.672H249.562V11.622H255.806ZM261.031 14.996C262.281 15.1173 262.907 15.696 262.907 16.732C262.907 17.5067 262.622 18.0807 262.053 18.454C261.493 18.818 260.741 19 259.799 19H257.139V11.72C258.007 11.5427 258.814 11.454 259.561 11.454C260.475 11.454 261.199 11.6267 261.731 11.972C262.263 12.3173 262.529 12.812 262.529 13.456C262.529 13.876 262.403 14.2167 262.151 14.478C261.899 14.7393 261.525 14.912 261.031 14.996ZM259.575 12.448C259.183 12.448 258.8 12.476 258.427 12.532V14.618H259.813C260.261 14.618 260.606 14.534 260.849 14.366C261.091 14.198 261.213 13.9133 261.213 13.512C261.213 13.1387 261.077 12.868 260.807 12.7C260.536 12.532 260.125 12.448 259.575 12.448ZM259.799 17.992C260.349 17.992 260.779 17.8987 261.087 17.712C261.395 17.5253 261.549 17.1893 261.549 16.704C261.549 16.3027 261.418 16.0133 261.157 15.836C260.895 15.6587 260.452 15.57 259.827 15.57H258.427V17.992H259.799ZM267.758 11.454C268.794 11.454 269.597 11.7993 270.166 12.49C270.745 13.1807 271.034 14.1187 271.034 15.304C271.034 16.0693 270.904 16.746 270.642 17.334C270.381 17.9127 270.003 18.3653 269.508 18.692C269.014 19.0093 268.426 19.168 267.744 19.168C266.708 19.168 265.901 18.8227 265.322 18.132C264.744 17.4413 264.454 16.5033 264.454 15.318C264.454 14.5527 264.585 13.8807 264.846 13.302C265.108 12.714 265.486 12.2613 265.98 11.944C266.475 11.6173 267.068 11.454 267.758 11.454ZM267.758 12.49C266.48 12.49 265.84 13.4327 265.84 15.318C265.84 17.194 266.475 18.132 267.744 18.132C269.014 18.132 269.648 17.1893 269.648 15.304C269.648 13.428 269.018 12.49 267.758 12.49ZM282.607 19H281.333V15.668C281.333 15.108 281.352 14.576 281.389 14.072C281.426 13.568 281.459 13.2367 281.487 13.078L278.393 19H276.867V11.622H278.141V14.954C278.141 15.4487 278.122 15.962 278.085 16.494C278.048 17.0167 278.02 17.3527 278.001 17.502L281.053 11.622H282.607V19ZM293.279 19V12.672H290.255V19H288.967V11.622H294.567V19H293.279ZM300.613 11.454C301.555 11.454 302.246 11.79 302.685 12.462C303.123 13.134 303.343 14.0813 303.343 15.304C303.343 16.4613 303.091 17.3947 302.587 18.104C302.083 18.8133 301.369 19.168 300.445 19.168C299.623 19.168 298.979 18.888 298.513 18.328V21.828L297.225 21.982V11.622H298.331L298.429 12.616C298.699 12.2427 299.026 11.958 299.409 11.762C299.791 11.5567 300.193 11.454 300.613 11.454ZM300.137 18.118C301.35 18.118 301.957 17.18 301.957 15.304C301.957 13.4187 301.401 12.476 300.291 12.476C299.927 12.476 299.595 12.5833 299.297 12.798C298.998 13.0127 298.737 13.288 298.513 13.624V17.222C298.699 17.5113 298.933 17.7353 299.213 17.894C299.493 18.0433 299.801 18.118 300.137 18.118ZM308.309 11.454C309.345 11.454 310.148 11.7993 310.717 12.49C311.296 13.1807 311.585 14.1187 311.585 15.304C311.585 16.0693 311.454 16.746 311.193 17.334C310.932 17.9127 310.554 18.3653 310.059 18.692C309.564 19.0093 308.976 19.168 308.295 19.168C307.259 19.168 306.452 18.8227 305.873 18.132C305.294 17.4413 305.005 16.5033 305.005 15.318C305.005 14.5527 305.136 13.8807 305.397 13.302C305.658 12.714 306.036 12.2613 306.531 11.944C307.026 11.6173 307.618 11.454 308.309 11.454ZM308.309 12.49C307.03 12.49 306.391 13.4327 306.391 15.318C306.391 17.194 307.026 18.132 308.295 18.132C309.564 18.132 310.199 17.1893 310.199 15.304C310.199 13.428 309.569 12.49 308.309 12.49ZM319.498 17.964V21.1H318.448L318.238 19H313.506L313.296 21.1H312.246V17.964H312.764C312.988 17.8147 313.165 17.6467 313.296 17.46C313.427 17.264 313.543 16.928 313.646 16.452C313.758 15.976 313.847 15.2807 313.912 14.366L314.108 11.622H318.728V17.964H319.498ZM317.44 12.644H315.27L315.158 14.198C315.093 15.066 315.018 15.7333 314.934 16.2C314.85 16.6667 314.729 17.026 314.57 17.278C314.421 17.53 314.201 17.7587 313.912 17.964H317.44V12.644ZM326.353 17.278C326.353 17.5767 326.404 17.8007 326.507 17.95C326.609 18.09 326.763 18.1973 326.969 18.272L326.675 19.168C326.292 19.1213 325.984 19.014 325.751 18.846C325.517 18.678 325.345 18.4167 325.233 18.062C324.738 18.7993 324.005 19.168 323.035 19.168C322.307 19.168 321.733 18.9627 321.313 18.552C320.893 18.1413 320.683 17.6047 320.683 16.942C320.683 16.158 320.963 15.556 321.523 15.136C322.092 14.716 322.895 14.506 323.931 14.506H325.065V13.96C325.065 13.4373 324.939 13.064 324.687 12.84C324.435 12.616 324.047 12.504 323.525 12.504C322.983 12.504 322.321 12.6347 321.537 12.896L321.215 11.958C322.129 11.622 322.979 11.454 323.763 11.454C324.631 11.454 325.279 11.6687 325.709 12.098C326.138 12.518 326.353 13.12 326.353 13.904V17.278ZM323.329 18.202C324.066 18.202 324.645 17.8193 325.065 17.054V15.36H324.099C322.736 15.36 322.055 15.864 322.055 16.872C322.055 17.3107 322.162 17.642 322.377 17.866C322.591 18.09 322.909 18.202 323.329 18.202ZM337.188 11.622L335.34 15.08L337.454 19H336.04L334.29 15.654H333.31V19H332.078V15.654H331.112L329.348 19H327.948L330.062 15.08L328.214 11.622H329.558L331.098 14.646H332.078V11.622H333.31V14.646H334.304L335.858 11.622H337.188ZM343.825 17.278C343.825 17.5767 343.877 17.8007 343.979 17.95C344.082 18.09 344.236 18.1973 344.441 18.272L344.147 19.168C343.765 19.1213 343.457 19.014 343.223 18.846C342.99 18.678 342.817 18.4167 342.705 18.062C342.211 18.7993 341.478 19.168 340.507 19.168C339.779 19.168 339.205 18.9627 338.785 18.552C338.365 18.1413 338.155 17.6047 338.155 16.942C338.155 16.158 338.435 15.556 338.995 15.136C339.565 14.716 340.367 14.506 341.403 14.506H342.537V13.96C342.537 13.4373 342.411 13.064 342.159 12.84C341.907 12.616 341.52 12.504 340.997 12.504C340.456 12.504 339.793 12.6347 339.009 12.896L338.687 11.958C339.602 11.622 340.451 11.454 341.235 11.454C342.103 11.454 342.752 11.6687 343.181 12.098C343.611 12.518 343.825 13.12 343.825 13.904V17.278ZM340.801 18.202C341.539 18.202 342.117 17.8193 342.537 17.054V15.36H341.571C340.209 15.36 339.527 15.864 339.527 16.872C339.527 17.3107 339.635 17.642 339.849 17.866C340.064 18.09 340.381 18.202 340.801 18.202ZM185.3 32.278C185.3 32.5767 185.351 32.8007 185.454 32.95C185.557 33.09 185.711 33.1973 185.916 33.272L185.622 34.168C185.239 34.1213 184.931 34.014 184.698 33.846C184.465 33.678 184.292 33.4167 184.18 33.062C183.685 33.7993 182.953 34.168 181.982 34.168C181.254 34.168 180.68 33.9627 180.26 33.552C179.84 33.1413 179.63 32.6047 179.63 31.942C179.63 31.158 179.91 30.556 180.47 30.136C181.039 29.716 181.842 29.506 182.878 29.506H184.012V28.96C184.012 28.4373 183.886 28.064 183.634 27.84C183.382 27.616 182.995 27.504 182.472 27.504C181.931 27.504 181.268 27.6347 180.484 27.896L180.162 26.958C181.077 26.622 181.926 26.454 182.71 26.454C183.578 26.454 184.227 26.6687 184.656 27.098C185.085 27.518 185.3 28.12 185.3 28.904V32.278ZM182.276 33.202C183.013 33.202 183.592 32.8193 184.012 32.054V30.36H183.046C181.683 30.36 181.002 30.864 181.002 31.872C181.002 32.3107 181.109 32.642 181.324 32.866C181.539 33.09 181.856 33.202 182.276 33.202ZM191.837 29.996C193.088 30.1173 193.713 30.696 193.713 31.732C193.713 32.5067 193.429 33.0807 192.859 33.454C192.299 33.818 191.548 34 190.605 34H187.945V26.72C188.813 26.5427 189.621 26.454 190.367 26.454C191.282 26.454 192.005 26.6267 192.537 26.972C193.069 27.3173 193.335 27.812 193.335 28.456C193.335 28.876 193.209 29.2167 192.957 29.478C192.705 29.7393 192.332 29.912 191.837 29.996ZM190.381 27.448C189.989 27.448 189.607 27.476 189.233 27.532V29.618H190.619C191.067 29.618 191.413 29.534 191.655 29.366C191.898 29.198 192.019 28.9133 192.019 28.512C192.019 28.1387 191.884 27.868 191.613 27.7C191.343 27.532 190.932 27.448 190.381 27.448ZM190.605 32.992C191.156 32.992 191.585 32.8987 191.893 32.712C192.201 32.5253 192.355 32.1893 192.355 31.704C192.355 31.3027 192.225 31.0133 191.963 30.836C191.702 30.6587 191.259 30.57 190.633 30.57H189.233V32.992H190.605ZM200.558 26.622L200.404 27.672H198.038V34H196.75V27.672H194.314V26.622H200.558ZM204.307 26.454C205.343 26.454 206.146 26.7993 206.715 27.49C207.294 28.1807 207.583 29.1187 207.583 30.304C207.583 31.0693 207.452 31.746 207.191 32.334C206.93 32.9127 206.552 33.3653 206.057 33.692C205.562 34.0093 204.974 34.168 204.293 34.168C203.257 34.168 202.45 33.8227 201.871 33.132C201.292 32.4413 201.003 31.5033 201.003 30.318C201.003 29.5527 201.134 28.8807 201.395 28.302C201.656 27.714 202.034 27.2613 202.529 26.944C203.024 26.6173 203.616 26.454 204.307 26.454ZM204.307 27.49C203.028 27.49 202.389 28.4327 202.389 30.318C202.389 32.194 203.024 33.132 204.293 33.132C205.562 33.132 206.197 32.1893 206.197 30.304C206.197 28.428 205.567 27.49 204.307 27.49ZM212.399 26.454C212.838 26.454 213.239 26.5193 213.603 26.65C213.967 26.7713 214.317 26.972 214.653 27.252L214.037 28.064C213.776 27.8773 213.519 27.742 213.267 27.658C213.024 27.5647 212.754 27.518 212.455 27.518C211.858 27.518 211.391 27.756 211.055 28.232C210.728 28.708 210.565 29.4127 210.565 30.346C210.565 31.2793 210.728 31.97 211.055 32.418C211.382 32.8567 211.848 33.076 212.455 33.076C212.744 33.076 213.01 33.034 213.253 32.95C213.496 32.8567 213.766 32.712 214.065 32.516L214.653 33.356C213.981 33.8973 213.23 34.168 212.399 34.168C211.4 34.168 210.612 33.832 210.033 33.16C209.464 32.488 209.179 31.5593 209.179 30.374C209.179 29.59 209.31 28.904 209.571 28.316C209.832 27.728 210.201 27.2707 210.677 26.944C211.162 26.6173 211.736 26.454 212.399 26.454ZM220.708 34V27.672H217.684V34H216.396V26.622H221.996V34H220.708ZM230.226 30.094C230.226 30.3087 230.217 30.528 230.198 30.752H225.494C225.55 31.564 225.756 32.1613 226.11 32.544C226.465 32.9267 226.922 33.118 227.482 33.118C227.837 33.118 228.164 33.0667 228.462 32.964C228.761 32.8613 229.074 32.698 229.4 32.474L229.96 33.244C229.176 33.86 228.318 34.168 227.384 34.168C226.358 34.168 225.555 33.832 224.976 33.16C224.407 32.488 224.122 31.564 224.122 30.388C224.122 29.6227 224.244 28.946 224.486 28.358C224.738 27.7607 225.093 27.294 225.55 26.958C226.017 26.622 226.563 26.454 227.188 26.454C228.168 26.454 228.92 26.776 229.442 27.42C229.965 28.064 230.226 28.9553 230.226 30.094ZM228.952 29.716C228.952 28.988 228.808 28.4327 228.518 28.05C228.229 27.6673 227.795 27.476 227.216 27.476C226.162 27.476 225.588 28.2507 225.494 29.8H228.952V29.716ZM237.813 32.964H238.933V36.1H237.883L237.673 34H232.283V26.622H233.571V32.95H236.525V26.622H237.813V32.964ZM245.279 26.622L245.125 27.672H242.759V34H241.471V27.672H239.035V26.622H245.279ZM251.828 30.094C251.828 30.3087 251.818 30.528 251.8 30.752H247.096C247.152 31.564 247.357 32.1613 247.712 32.544C248.066 32.9267 248.524 33.118 249.084 33.118C249.438 33.118 249.765 33.0667 250.064 32.964C250.362 32.8613 250.675 32.698 251.002 32.474L251.562 33.244C250.778 33.86 249.919 34.168 248.986 34.168C247.959 34.168 247.156 33.832 246.578 33.16C246.008 32.488 245.724 31.564 245.724 30.388C245.724 29.6227 245.845 28.946 246.088 28.358C246.34 27.7607 246.694 27.294 247.152 26.958C247.618 26.622 248.164 26.454 248.79 26.454C249.77 26.454 250.521 26.776 251.044 27.42C251.566 28.064 251.828 28.9553 251.828 30.094ZM250.554 29.716C250.554 28.988 250.409 28.4327 250.12 28.05C249.83 27.6673 249.396 27.476 248.818 27.476C247.763 27.476 247.189 28.2507 247.096 29.8H250.554V29.716ZM256.59 30.052L259.152 34H257.598L255.792 30.878L253.958 34H252.502L255.078 30.108L252.796 26.622H254.308L255.848 29.324L257.402 26.622H258.858L256.59 30.052ZM264.911 34V30.752H261.845V34H260.557V26.622H261.845V29.716H264.911V26.622H266.199V34H264.911ZM274.595 34H273.321V30.668C273.321 30.108 273.34 29.576 273.377 29.072C273.415 28.568 273.447 28.2367 273.475 28.078L270.381 34H268.855V26.622H270.129V29.954C270.129 30.4487 270.111 30.962 270.073 31.494C270.036 32.0167 270.008 32.3527 269.989 32.502L273.041 26.622H274.595V34ZM282.78 26.622L280.54 30.038L283.046 34H281.52L279.476 30.598H278.538V34H277.25V26.622H278.538V29.59H279.504L281.366 26.622H282.78ZM290.25 34H288.976V30.668C288.976 30.108 288.994 29.576 289.032 29.072C289.069 28.568 289.102 28.2367 289.13 28.078L286.036 34H284.51V26.622H285.784V29.954C285.784 30.4487 285.765 30.962 285.728 31.494C285.69 32.0167 285.662 32.3527 285.644 32.502L288.696 26.622H290.25V34Z" fill="black"/>
    <rect x="169" y="11" width="2" height="23" fill="#FEC80B"/>
</svg>
