<svg width="46" height="46" viewBox="0 0 46 46" fill="none"
    xmlns="http://www.w3.org/2000/svg">
    <circle cx="23" cy="23" r="23" fill="#FEC80B"/>
    <g clip-path="url(#clip0_139_297)">
        <path d="M34.9993 28.9686V32.5816C35.0006 32.917 34.9318 33.249 34.7971 33.5563C34.6625 33.8636 34.465 34.1395 34.2174 34.3662C33.9698 34.593 33.6774 34.7656 33.359 34.8731C33.0407 34.9805 32.7033 35.0204 32.3686 34.9902C28.6554 34.5875 25.0885 33.3212 21.9547 31.293C19.0391 29.4439 16.5671 26.9769 14.7144 24.067C12.675 20.9252 11.4059 17.3481 11.0098 13.6255C10.9796 13.2925 11.0193 12.9569 11.1262 12.64C11.2332 12.3231 11.4051 12.0318 11.631 11.7849C11.8569 11.5379 12.1318 11.3406 12.4383 11.2055C12.7448 11.0704 13.0761 11.0004 13.4112 11.0001H17.0313C17.6169 10.9944 18.1847 11.2013 18.6287 11.5824C19.0727 11.9636 19.3628 12.4928 19.4447 13.0716C19.5975 14.2278 19.8809 15.363 20.2894 16.4557C20.4518 16.8868 20.4869 17.3552 20.3907 17.8056C20.2944 18.256 20.0708 18.6694 19.7464 18.9968L18.2139 20.5263C19.9317 23.5414 22.4331 26.0378 25.4542 27.7522L26.9867 26.2228C27.3148 25.899 27.729 25.6758 28.1803 25.5798C28.6315 25.4837 29.1009 25.5188 29.5328 25.6808C30.6277 26.0885 31.7652 26.3713 32.9237 26.5238C33.5099 26.6064 34.0452 26.901 34.4279 27.3518C34.8106 27.8026 35.0139 28.378 34.9993 28.9686Z" fill="black"/>
    </g>
    <defs>
        <clipPath id="clip0_139_297">
            <rect width="24" height="24" fill="white" transform="translate(11 11)"/>
        </clipPath>
    </defs>
</svg>
